<svg width="298" height="183" viewBox="0 0 298 183" fill="none" xmlns="http://www.w3.org/2000/svg">
<path d="M274.619 138.284C260.631 151.152 242.735 161.228 223.629 168.532C198.369 178.189 170.997 182.998 147.747 183C124.411 183 102.312 179.965 82.6602 174.064C33.1027 159.184 -0.900408 126.09 0.0181659 77.5425C1.46616 0.881079 109.504 -18.175 152.94 16.9932C199.586 54.7588 218.765 18.1063 265.451 38.1061C301.413 53.5118 311.288 104.547 274.619 138.284Z" fill="#E94E4E"/>
<path d="M219.629 83.2495C219.629 83.2495 215.745 80.2076 214.984 79.6594C214.224 79.1113 214.194 78.3541 214.589 78.1187C214.589 78.1187 212.104 76.2106 211.743 73.6395C211.348 70.8858 213.007 71.1608 213.925 72.0856C214.844 73.0104 215.616 75.0221 216.464 74.7226C217.311 74.4231 216.942 73.2609 216.28 73.0142C215.618 72.7674 216.134 71.7164 216.831 71.8841C217.529 72.0517 217.714 73.4964 217.714 74.2686C217.714 75.0409 218.307 76.7587 220.915 76.2332C223.522 75.7077 232.093 70.7991 232.093 70.9027C232.093 71.0063 234.484 71.9839 235.55 71.5657C236.617 71.1476 238.891 66.8003 238.891 66.8003L245.339 68.8345L238.2 83.2458C238.2 83.2458 224.298 86.2293 219.629 83.2495Z" fill="url(#paint0_linear_9_125)"/>
<path d="M227.094 62.9373L235.746 66.5424C235.746 66.5424 232.445 75.0185 232.103 80.0514L225.051 76.5046C225.051 76.5046 225.051 67.5369 227.094 62.9373Z" fill="url(#paint1_linear_9_125)"/>
<path d="M219.465 82.5002C220.045 80.837 221.574 79.0457 225.762 78.377C230.29 77.6537 235.803 79.752 233.451 82.3325L226.339 84.0692L219.465 82.5002Z" fill="url(#paint2_linear_9_125)"/>
<path d="M232.718 83.0632H232.704C232.678 83.0616 232.653 83.055 232.629 83.044C232.606 83.0329 232.585 83.0176 232.568 82.9989C232.551 82.9801 232.538 82.9584 232.53 82.9348C232.522 82.9113 232.518 82.8864 232.52 82.8617C232.56 82.3079 232.24 81.4 231.436 80.6259C230.788 80.0024 229.624 79.281 227.779 79.3827C224.504 79.5711 222.205 80.172 220.152 82.7167C220.137 82.7379 220.117 82.756 220.095 82.7699C220.072 82.7837 220.046 82.7929 220.02 82.7969C219.993 82.801 219.966 82.7998 219.94 82.7935C219.914 82.7871 219.889 82.7758 219.868 82.76C219.847 82.7443 219.829 82.7246 219.816 82.7021C219.803 82.6796 219.795 82.6548 219.792 82.6292C219.789 82.6036 219.792 82.5778 219.801 82.5533C219.809 82.5288 219.822 82.5062 219.84 82.4869C221.985 79.8273 224.368 79.1963 227.757 79.006C229.753 78.893 231.011 79.6803 231.708 80.3603C232.601 81.2192 232.953 82.2439 232.907 82.8881C232.904 82.9344 232.883 82.978 232.848 83.0103C232.813 83.0426 232.766 83.0615 232.718 83.0632Z" fill="#D33332"/>
<path d="M220.602 83.229C221.835 81.0912 223.773 79.897 227.005 79.897C230.236 79.897 230.875 82.6037 230.875 82.6037L229.077 83.2309C229.077 83.2309 229.219 80.9386 226.977 80.8049C224.735 80.6711 222.208 81.6073 221.446 83.455L220.602 83.229Z" fill="url(#paint3_linear_9_125)"/>
<path d="M209.018 64.1708L217.75 60.8369C217.75 60.8369 223.818 63.3873 225.059 70.2284C225.059 70.2284 222.429 78.5877 222.262 78.4257C222.094 78.2637 217.489 76.3933 217.489 76.3933C217.489 76.3933 217.556 73.3137 216.811 72.3361C216.803 72.3361 215.28 69.6332 209.018 64.1708Z" fill="url(#paint4_linear_9_125)"/>
<path d="M272.04 74.3292C270.614 73.2593 269.65 75.8756 268.88 75.1843C268.109 74.493 269.593 72.1706 268.88 70.7033C268.167 69.236 266.977 71.1892 266.158 70.1778C265.385 69.236 267.272 67.3129 266.75 62.8111C266.401 59.7729 263.208 54.0205 261.837 55.1073C260.466 56.1941 262.197 60.5904 261.509 63.0183C261.022 64.7437 259.354 63.3668 259.038 62.5719C258.517 61.2534 257.231 59.3152 256.421 60.9426C255.611 62.57 257.274 65.5423 257.408 65.4632C257.543 65.3841 261.754 67.6575 261.986 71.2344C262.217 74.8114 260.395 75.1052 256.087 75.3896L252.638 85.2821L260.012 88.1697L263.819 84.7792C270.164 83.8563 273.834 75.6721 272.04 74.3292ZM262.841 65.9077C262.681 64.5741 262.963 61.7638 263.665 61.6019C264.834 61.3495 265.48 66.6046 264.558 67.2111C263.635 67.8177 262.999 67.2413 262.841 65.9077V65.9077ZM266.531 81.7033C265.089 82.6602 264.105 82.4116 263.92 81.4905C264.71 79.8951 267.24 77.3598 268.39 78.3393C269.328 79.136 267.975 80.7465 266.531 81.7033V81.7033Z" fill="url(#paint5_linear_9_125)"/>
<path d="M241.658 81.1987C241.783 81.1987 255.38 80.1703 255.504 80.0893C255.629 80.0083 262.191 75.3804 257.58 66.812C252.97 58.2436 252.035 55.8289 251.144 46.0418C251.054 45.0492 250.378 44.9004 250.015 45.149C250.015 45.149 250.631 41.817 250.163 41.4949C249.694 41.1728 249.467 41.1069 248.871 42.4706C248.274 43.8343 246.479 48.1025 247.571 54.5744C248.663 61.0464 250.51 62.8621 250.51 62.8621L249.918 62.8188C249.918 62.8188 248.021 59.5376 245.967 56.7518C243.912 53.966 243.417 53.9039 243.091 53.9265C242.765 53.9491 242.609 54.6422 242.98 55.1188C243.351 55.5953 247.253 60.0971 248.821 63.7964C249.592 65.614 250.433 68.6183 249.845 71.6641C249.288 74.5874 245.669 77.7499 241.658 81.1987Z" fill="url(#paint6_linear_9_125)"/>
<path d="M255.099 64.953C255.07 64.9531 255.041 64.9468 255.014 64.9348C254.987 64.9227 254.964 64.9051 254.945 64.8833C251.3 60.5511 249.969 55.8421 249.493 52.6551C248.934 48.9219 249.359 45.9684 249.839 45.0643C249.862 45.0196 249.903 44.9857 249.953 44.9699C250.003 44.9542 250.057 44.958 250.104 44.9805C250.151 45.003 250.187 45.0423 250.203 45.0898C250.22 45.1373 250.216 45.1891 250.192 45.2338C249.179 47.1438 248.778 56.9308 255.255 64.6459C255.279 64.6736 255.294 64.7071 255.298 64.7425C255.302 64.7779 255.296 64.8138 255.28 64.8459C255.264 64.8781 255.239 64.9052 255.207 64.9241C255.175 64.9431 255.139 64.9531 255.101 64.953H255.099Z" fill="#E94E4E"/>
<path d="M253.065 64.3595C253.031 64.3596 252.998 64.3515 252.969 64.336C252.939 64.3205 252.915 64.2982 252.897 64.271C245.376 52.7454 248.962 44.5764 250.141 41.8923C250.164 41.8499 250.202 41.8172 250.249 41.8008C250.296 41.7843 250.347 41.7854 250.393 41.8038C250.439 41.8222 250.476 41.8564 250.497 41.8998C250.518 41.9431 250.52 41.9922 250.504 42.0373C249.345 44.6743 245.819 52.7096 253.231 64.0751C253.249 64.1036 253.26 64.1365 253.261 64.1701C253.261 64.2037 253.253 64.237 253.236 64.2664C253.219 64.2958 253.194 64.3203 253.163 64.3374C253.133 64.3544 253.098 64.3634 253.063 64.3633L253.065 64.3595Z" fill="#E94E4E"/>
<path d="M255.972 64.9529C255.941 64.9528 255.909 64.9454 255.881 64.9313C255.853 64.9172 255.829 64.8968 255.81 64.8719C255.759 64.8022 254.526 63.0994 252.079 57.3715C250.092 52.7228 250.441 49.259 250.672 46.9666C250.732 46.3846 250.781 45.8817 250.787 45.4485C250.787 45.3985 250.808 45.3506 250.845 45.3153C250.882 45.28 250.932 45.2601 250.984 45.2601C251.037 45.2601 251.087 45.28 251.124 45.3153C251.161 45.3506 251.182 45.3985 251.182 45.4485C251.182 45.8968 251.127 46.4072 251.067 46.9987C250.84 49.259 250.496 52.6626 252.45 57.2246C254.876 62.8979 256.128 64.6327 256.14 64.6496C256.161 64.6779 256.173 64.7109 256.175 64.7452C256.177 64.7795 256.17 64.8137 256.153 64.8442C256.136 64.8746 256.111 64.9002 256.08 64.918C256.05 64.9358 256.014 64.9453 255.978 64.9453L255.972 64.9529Z" fill="#E94E4E"/>
<path d="M244.157 81.2025C244.117 81.2025 244.078 81.1907 244.044 81.1687C244.011 81.1467 243.986 81.1155 243.972 81.0794C243.958 81.0433 243.956 81.0039 243.966 80.9667C243.976 80.9294 243.998 80.896 244.029 80.871C252.024 74.3105 251.461 71.0764 250.611 66.1791C250.572 65.9531 250.532 65.7239 250.493 65.4916C250.484 65.4417 250.497 65.3906 250.528 65.3496C250.559 65.3086 250.606 65.2811 250.659 65.2731C250.711 65.2652 250.764 65.2773 250.807 65.307C250.85 65.3367 250.879 65.3814 250.888 65.4314C250.927 65.6637 250.967 65.8928 251.006 66.1189C251.846 70.9597 252.454 74.4593 244.29 81.1573C244.253 81.1873 244.206 81.2034 244.157 81.2025Z" fill="#E94E4E"/>
<path d="M246.123 81.8917C246.085 81.8917 246.048 81.8814 246.016 81.862C245.985 81.8426 245.959 81.8149 245.943 81.7821C245.928 81.7494 245.922 81.7131 245.927 81.6775C245.932 81.6418 245.948 81.6083 245.973 81.5809C246.399 81.1006 246.812 80.6391 247.211 80.2021C251.241 75.7437 253.673 73.0446 251.767 66.1319C251.757 66.0848 251.766 66.036 251.793 65.9953C251.819 65.9546 251.861 65.9251 251.91 65.9129C251.959 65.9006 252.01 65.9065 252.055 65.9294C252.099 65.9522 252.132 65.9903 252.148 66.0358C254.108 73.1482 251.624 75.8963 247.51 80.447C247.115 80.8859 246.7 81.3436 246.273 81.8239C246.255 81.8449 246.232 81.8619 246.206 81.8736C246.18 81.8853 246.152 81.8915 246.123 81.8917V81.8917Z" fill="#E94E4E"/>
<path d="M248.8 81.3872C248.76 81.3871 248.722 81.3756 248.689 81.3543C248.656 81.333 248.631 81.3029 248.617 81.2678C248.602 81.2327 248.599 81.1942 248.608 81.1574C248.616 81.1206 248.636 81.0871 248.665 81.0614C255.512 75.0113 254.309 70.5134 253.248 66.5428L253.14 66.1322C253.133 66.1082 253.132 66.0832 253.136 66.0587C253.14 66.0343 253.148 66.0107 253.162 65.9895C253.175 65.9682 253.192 65.9497 253.213 65.9349C253.234 65.9201 253.258 65.9094 253.283 65.9033C253.308 65.8973 253.334 65.896 253.36 65.8996C253.386 65.9032 253.41 65.9115 253.433 65.9242C253.455 65.9369 253.474 65.9536 253.49 65.9735C253.505 65.9933 253.517 66.0159 253.523 66.0399L253.632 66.4486C254.665 70.3194 255.953 75.1357 248.934 81.3288C248.899 81.3641 248.851 81.385 248.8 81.3872V81.3872Z" fill="#E94E4E"/>
<path d="M250.753 81.387C250.711 81.3871 250.67 81.3742 250.636 81.3502C250.601 81.3262 250.576 81.2924 250.564 81.2537C250.552 81.2151 250.553 81.1737 250.567 81.1356C250.581 81.0975 250.608 81.0648 250.643 81.0423C257.021 76.9813 256.348 72.0953 254.908 66.5896C254.897 66.542 254.907 66.4923 254.934 66.4511C254.961 66.4099 255.004 66.3804 255.054 66.3687C255.103 66.357 255.156 66.364 255.2 66.3884C255.244 66.4127 255.277 66.4524 255.291 66.4992C256.767 72.1499 257.454 77.1602 250.862 81.3568C250.83 81.3768 250.792 81.3873 250.753 81.387Z" fill="#E94E4E"/>
<path d="M253.065 81.679C253.024 81.6791 252.984 81.6672 252.951 81.645C252.918 81.6227 252.892 81.5912 252.878 81.5547C252.865 81.5183 252.863 81.4786 252.874 81.4412C252.884 81.4038 252.907 81.3704 252.938 81.3456C258.651 76.7723 257.679 72.1821 256.82 68.1324L256.701 67.5673C256.691 67.5174 256.702 67.4656 256.732 67.4234C256.762 67.3812 256.808 67.352 256.86 67.3422C256.913 67.3325 256.967 67.343 257.011 67.3714C257.056 67.3999 257.086 67.4439 257.096 67.4939L257.213 68.0589C258.092 72.2028 259.09 76.9117 253.197 81.6357C253.16 81.6651 253.113 81.6805 253.065 81.679V81.679Z" fill="#E94E4E"/>
<path d="M223.522 85.0221C229.522 80.3922 237.943 80.0023 245.339 80.1248C252.735 80.2472 261.585 79.3073 261.836 72.3419C261.836 72.3419 265.079 80.2811 255.149 83.5096C245.218 86.738 243.926 88.9004 243.926 88.9004L223.522 85.0221Z" fill="url(#paint7_linear_9_125)"/>
<path d="M227.769 85.4687C227.728 85.4686 227.688 85.4562 227.655 85.4333C227.621 85.4105 227.596 85.3782 227.583 85.3411C227.57 85.304 227.569 85.2638 227.581 85.2262C227.592 85.1887 227.616 85.1556 227.649 85.1315C230.612 82.9617 234.077 80.8181 240.932 80.5243C247.727 80.2324 254.653 81.0592 254.722 81.0687C254.748 81.0718 254.773 81.0797 254.796 81.092C254.818 81.1043 254.838 81.1208 254.854 81.1405C254.871 81.1602 254.882 81.1827 254.889 81.2067C254.896 81.2307 254.898 81.2558 254.895 81.2806C254.892 81.3053 254.883 81.3292 254.87 81.3509C254.857 81.3725 254.84 81.3915 254.82 81.4069C254.799 81.4222 254.775 81.4334 254.75 81.44C254.725 81.4467 254.699 81.4485 254.673 81.4454C254.603 81.4454 247.711 80.6128 240.951 80.9048C234.191 81.1967 230.805 83.3007 227.892 85.4254C227.857 85.4526 227.814 85.4679 227.769 85.4687Z" fill="#E94E4E"/>
<path d="M229.942 85.9075C229.904 85.9077 229.866 85.8972 229.834 85.8773C229.801 85.8573 229.776 85.8287 229.76 85.7951C229.745 85.7614 229.74 85.7242 229.746 85.6879C229.752 85.6517 229.77 85.618 229.796 85.5911C233.802 81.4171 244.152 81.272 251.798 82.4172C251.851 82.425 251.898 82.4522 251.929 82.493C251.96 82.5338 251.973 82.5848 251.965 82.6348C251.957 82.6847 251.929 82.7296 251.886 82.7594C251.843 82.7893 251.79 82.8017 251.737 82.7939C244.189 81.6638 233.99 81.7862 230.088 85.851C230.069 85.8695 230.047 85.884 230.022 85.8938C229.996 85.9035 229.969 85.9082 229.942 85.9075Z" fill="#E94E4E"/>
<path d="M232.534 87.6082C232.496 87.6083 232.46 87.5981 232.428 87.5789C232.396 87.5597 232.371 87.5323 232.355 87.4999C232.339 87.4675 232.333 87.4314 232.338 87.3959C232.343 87.3603 232.358 87.3268 232.382 87.2993C235.501 83.6998 241.469 82.5056 249.213 83.939C249.265 83.9485 249.311 83.9775 249.341 84.0195C249.371 84.0615 249.383 84.1132 249.373 84.1632C249.363 84.2131 249.332 84.2572 249.288 84.2859C249.244 84.3145 249.19 84.3252 249.137 84.3157C241.552 82.9106 235.705 84.0577 232.686 87.5461C232.667 87.5663 232.643 87.5823 232.617 87.5931C232.591 87.6038 232.563 87.6089 232.534 87.6082Z" fill="#E94E4E"/>
<path d="M259.518 65.7062C253.426 62.6642 244.606 61.3231 238.174 59.302C234.347 58.1022 232.967 56.277 231.852 54.9189C231.479 54.4631 230.685 55.0169 230.784 55.9398C230.315 55.4827 229.873 55.001 229.46 54.497C228.67 53.5364 227.935 55.209 229.227 56.5689C239.14 67.0077 250.87 65.9152 255.722 68.136C260.573 70.3567 261.399 72.9937 261.648 74.7059C261.897 76.418 258.685 79.703 255.388 80.6749C252.091 81.6468 244.422 83.5436 241.994 87.8758C241.994 87.8758 254.216 87.096 254.424 87.079C254.596 87.064 262.475 84.9826 264.996 80.5506C268.643 76.4783 265.415 68.6539 259.518 65.7062Z" fill="url(#paint8_linear_9_125)"/>
<path d="M249.596 88.081C249.543 88.0877 249.49 88.0744 249.448 88.0438C249.406 88.0132 249.379 87.968 249.372 87.9181C249.365 87.8681 249.379 87.8175 249.411 87.7774C249.443 87.7373 249.49 87.711 249.543 87.7043C249.639 87.6779 259.281 85.0861 262.456 79.733C262.966 78.8978 263.292 77.9719 263.414 77.0121C263.536 76.0524 263.45 75.0791 263.163 74.152C261.439 68.262 255.605 67.0283 249.43 65.723C246.85 65.1768 244.181 64.6136 241.712 63.6925C234.705 61.0819 231.657 57.9702 229.433 55.6986C229.087 55.3464 228.761 55.0111 228.445 54.7003C228.408 54.6646 228.388 54.6165 228.389 54.5665C228.389 54.5165 228.41 54.4688 228.448 54.4338C228.485 54.3988 228.536 54.3795 228.588 54.38C228.641 54.3805 228.691 54.4009 228.727 54.4366C229.051 54.7512 229.379 55.0865 229.727 55.4425C231.926 57.6877 234.938 60.7635 241.862 63.344C244.304 64.2538 246.957 64.8151 249.523 65.3576C255.817 66.6874 261.77 67.9456 263.548 74.054C263.85 75.0288 263.939 76.0521 263.811 77.061C263.683 78.07 263.34 79.0433 262.804 79.9214C259.548 85.4101 250.054 87.9642 249.651 88.0697C249.633 88.076 249.615 88.0798 249.596 88.081Z" fill="#E94E4E"/>
<path d="M245.339 88.8817C245.302 88.8818 245.267 88.8722 245.235 88.8541C245.204 88.8359 245.179 88.8099 245.162 88.7788C245.146 88.7478 245.139 88.713 245.141 88.6783C245.144 88.6436 245.157 88.6103 245.179 88.5822C247.587 85.4103 252.158 83.4645 255.184 82.1781C256.097 81.7901 256.885 81.4548 257.46 81.1553C259.999 79.8368 262.328 77.2751 261.441 74.7719C261.424 74.7244 261.428 74.6725 261.451 74.6277C261.474 74.5828 261.515 74.5486 261.565 74.5326C261.615 74.5167 261.669 74.5202 261.716 74.5424C261.763 74.5647 261.799 74.6039 261.816 74.6513C262.78 77.375 260.417 80.0477 257.65 81.4868C257.057 81.7938 256.267 82.131 255.344 82.5228C252.358 83.7942 247.838 85.7135 245.499 88.8045C245.48 88.8285 245.456 88.848 245.429 88.8614C245.401 88.8748 245.37 88.8818 245.339 88.8817Z" fill="#E94E4E"/>
<path d="M264.979 80.7426H264.941C264.89 80.733 264.844 80.7045 264.815 80.6632C264.786 80.6219 264.775 80.5712 264.785 80.5222C265.597 76.4933 265.054 73.1311 263.171 70.5393C259.615 65.6232 252.083 64.3687 247.585 63.6172C246.959 63.5136 246.366 63.4138 245.868 63.3196C241.394 62.4951 237.105 60.9349 233.192 58.7086C233.149 58.6825 233.118 58.6416 233.106 58.5944C233.094 58.5472 233.101 58.4974 233.127 58.4554C233.152 58.4133 233.194 58.3823 233.243 58.3687C233.292 58.3552 233.344 58.3602 233.389 58.3827C237.265 60.5874 241.514 62.1323 245.945 62.9485C246.439 63.0427 247 63.1369 247.652 63.2461C252.211 63.9995 259.844 65.2785 263.495 70.3246C265.439 73.0105 266.004 76.4688 265.17 80.6014C265.159 80.6418 265.134 80.6777 265.1 80.7033C265.065 80.7288 265.022 80.7427 264.979 80.7426Z" fill="#E94E4E"/>
<path d="M239.383 73.8938C242.832 75.9657 247.504 73.971 248.646 69.6313C249.787 65.2915 249.416 60.1287 242.931 63.1009C235.955 66.2993 236.801 72.3361 239.383 73.8938Z" fill="url(#paint9_linear_9_125)"/>
<path d="M242.931 72.0876C244.375 72.0876 245.546 70.9711 245.546 69.5938C245.546 68.2165 244.375 67.0999 242.931 67.0999C241.486 67.0999 240.315 68.2165 240.315 69.5938C240.315 70.9711 241.486 72.0876 242.931 72.0876Z" fill="url(#paint10_linear_9_125)"/>
<path d="M244.63 79.3338C244.462 79.5391 244.272 79.8122 244.051 80.1042C242.117 80.091 240.128 80.1268 238.142 80.2756C237.077 80.3547 236.017 80.4639 234.964 80.6184C232.629 79.0889 233.237 77.5651 234.1 77.098C235.037 76.5913 234.413 75.2521 234.63 74.3875C234.847 73.523 235.971 72.8279 237.198 73.0163C238.616 73.2367 238.822 71.8447 240.323 71.6771C241.461 71.5509 243.33 72.0858 243.658 73.717C243.993 75.382 245.299 74.6964 245.623 75.8285C245.947 76.9605 245.285 78.5276 244.63 79.3338Z" fill="url(#paint11_linear_9_125)"/>
<path d="M238.142 80.558C238.07 80.5594 238 80.5352 237.945 80.4902C236.408 79.2264 235.884 77.7666 236.511 76.4876C237.137 75.2087 238.764 74.5099 240.477 74.7736C240.869 74.8412 241.237 75.001 241.547 75.2385C241.858 75.476 242.101 75.7836 242.255 76.1335C242.446 76.5196 242.536 76.9441 242.517 77.3706C242.498 77.7971 242.371 78.2129 242.146 78.5822C241.914 78.9268 241.582 79.1995 241.189 79.3667C240.797 79.534 240.362 79.5886 239.938 79.524C239.585 79.4897 239.25 79.3569 238.976 79.1421C238.702 78.9273 238.501 78.6401 238.397 78.3166C238.295 78.0105 238.287 77.6828 238.375 77.3726C238.462 77.0623 238.641 76.7826 238.891 76.5667C239.304 76.2126 239.863 76.0789 240.274 76.2352C240.476 76.3075 240.645 76.4452 240.751 76.6243C240.857 76.8034 240.894 77.0124 240.854 77.2147C240.785 77.5914 240.434 78.0171 239.669 78.0303C239.591 78.0298 239.516 78.0006 239.46 77.9486C239.404 77.8966 239.372 77.826 239.369 77.7515C239.368 77.7144 239.376 77.6776 239.39 77.6431C239.404 77.6086 239.426 77.5772 239.453 77.5506C239.48 77.524 239.512 77.5028 239.548 77.4882C239.584 77.4735 239.622 77.4657 239.661 77.4652C240.056 77.4652 240.244 77.2769 240.274 77.1149C240.288 77.0416 240.274 76.966 240.235 76.9015C240.196 76.837 240.134 76.7878 240.06 76.7626C239.921 76.7339 239.777 76.7396 239.641 76.7792C239.505 76.8188 239.382 76.8909 239.284 76.9887C239.118 77.1357 238.999 77.3251 238.943 77.5345C238.886 77.7438 238.893 77.9642 238.964 78.1697C239.036 78.3877 239.175 78.5802 239.362 78.7225C239.55 78.8647 239.778 78.9504 240.017 78.9683C240.327 79.0159 240.646 78.9766 240.933 78.8553C241.221 78.7339 241.465 78.5357 241.637 78.2846C241.809 77.9929 241.906 77.6661 241.918 77.3315C241.931 76.9969 241.86 76.6643 241.71 76.3614C241.595 76.0955 241.412 75.8611 241.178 75.6798C240.943 75.4986 240.665 75.3761 240.369 75.3236C238.917 75.0994 237.546 75.6739 237.034 76.7193C236.522 77.7647 236.996 78.9683 238.318 80.0551C238.364 80.0929 238.397 80.1434 238.413 80.1998C238.428 80.2561 238.424 80.3156 238.403 80.37C238.381 80.4244 238.342 80.4711 238.292 80.5037C238.241 80.5364 238.182 80.5534 238.121 80.5524L238.142 80.558Z" fill="#ECB88B"/>
<path d="M222.031 115.643L217.335 127.815C217.335 127.815 231.394 131.292 231.013 124.86C230.602 117.904 222.031 115.643 222.031 115.643Z" fill="url(#paint12_linear_9_125)"/>
<path d="M212.626 102.072C212.944 99.4032 216.606 94.3307 223.852 93.1572L246.174 100.601C246.174 100.601 236.068 108.427 226.39 106.082C216.713 103.737 212.626 102.072 212.626 102.072Z" fill="#F9CBA2"/>
<path d="M217.357 101.33C217.357 101.33 220.004 99.5331 223.212 99.5067C226.42 99.4804 228.291 98.1882 228.291 98.1882L244.161 100.194C244.161 100.194 240.991 106.152 233.099 106.529C225.207 106.905 217.357 101.33 217.357 101.33Z" fill="#E5AD83"/>
<path d="M263.811 84.7792C263.454 85.9668 263.03 87.135 262.541 88.2789C262.122 89.2602 261.65 90.2197 261.125 91.1532C256.796 98.8325 249.074 104.052 237.244 102.912C225.47 101.782 218.402 93.7978 215.943 86.3106C215.642 85.4045 215.406 84.4801 215.237 83.5436C214.997 82.2625 214.912 80.9593 214.984 79.6597C224.437 85.2595 255.765 88.1922 263.811 84.7792Z" fill="url(#paint13_linear_9_125)"/>
<path d="M253.452 102.225C250.633 104.402 244.282 105.851 244.282 105.851C237.638 110.074 227.048 109.126 225.408 109.241C225.288 109.241 225.211 109.262 225.197 109.284C225.12 109.377 224.468 111.155 223.579 113.645C222.728 116.022 221.659 119.049 220.667 121.878C219.464 125.304 218.368 128.44 217.902 129.789L217.661 130.48C215.63 129.255 213.771 127.787 212.13 126.112C208.758 122.68 205.457 117.408 207.495 110.966L207.574 110.842C208.167 109.9 211.942 103.848 212.631 102.08C213.378 100.16 222.783 98.8362 229.654 103.726C230.049 104.001 232.273 103.005 233.786 101.528C235.299 100.051 236.603 97.2596 238.648 97.0619C241.018 96.8358 240.882 99.8439 236.811 104.069C236.811 104.069 240.639 103.464 243.614 100.678C247.336 97.1975 249.985 98.5536 248.428 101.334C253.639 97.7475 256.674 99.7328 253.452 102.225Z" fill="#F9CBA2"/>
<path d="M236.801 104.344C236.743 104.344 236.687 104.328 236.639 104.298C236.59 104.268 236.552 104.225 236.529 104.174C236.506 104.124 236.499 104.068 236.509 104.014C236.518 103.96 236.545 103.91 236.584 103.869C239.442 100.903 240.244 98.663 239.77 97.7608C239.594 97.4255 239.223 97.2824 238.668 97.3351C237.386 97.4594 236.368 98.7817 235.385 100.059C234.959 100.641 234.493 101.195 233.988 101.716C232.605 103.063 230.12 104.41 229.466 103.943C225.089 100.827 220.138 100.586 218.206 100.626C218.167 100.627 218.128 100.621 218.092 100.608C218.055 100.595 218.021 100.575 217.993 100.549C217.965 100.523 217.943 100.492 217.927 100.457C217.912 100.423 217.904 100.386 217.904 100.349C217.903 100.312 217.91 100.275 217.924 100.24C217.939 100.206 217.96 100.174 217.987 100.147C218.014 100.121 218.046 100.099 218.081 100.084C218.117 100.069 218.156 100.061 218.194 100.061C220.17 100.017 225.278 100.27 229.8 103.479C230.179 103.558 232.127 102.726 233.553 101.321C234.038 100.818 234.486 100.284 234.895 99.7235C235.956 98.3447 237.052 96.9207 238.597 96.7719C239.399 96.6947 239.999 96.9603 240.288 97.5065C240.932 98.7327 239.92 101.017 237.635 103.575C238.923 103.225 241.368 102.357 243.385 100.471C245.87 98.1469 247.731 98.0226 248.567 98.6159C249.313 99.149 249.357 100.24 248.667 101.462C248.63 101.528 248.567 101.578 248.492 101.6C248.417 101.622 248.336 101.614 248.266 101.579C248.197 101.544 248.145 101.484 248.122 101.412C248.099 101.34 248.107 101.263 248.144 101.196C248.681 100.238 248.705 99.424 248.211 99.0699C247.534 98.5858 245.864 98.9456 243.8 100.876C240.793 103.688 236.999 104.314 236.837 104.34L236.801 104.344Z" fill="#F4EAC8"/>
<path d="M225.409 109.239C225.288 109.239 225.211 109.26 225.197 109.283C225.12 109.375 224.468 111.153 223.579 113.643C218.123 111.771 218.212 107.004 218.212 107.004C220.243 108.606 225.199 109.213 225.409 109.239Z" fill="#E5AD83"/>
<path d="M220.667 121.876C219.464 125.302 218.368 128.439 217.902 129.787L212.128 126.11C208.756 122.679 205.455 117.406 207.493 110.965L207.572 110.84C208.773 113.952 212.566 121.69 220.667 121.876Z" fill="#E5AD83"/>
<path d="M14.5849 69.7218C14.6987 69.8503 14.8384 69.9555 14.9957 70.0313C15.1531 70.1071 15.3249 70.1519 15.5008 70.163C15.6767 70.1741 15.8531 70.1512 16.0196 70.0958C16.186 70.0404 16.339 69.9536 16.4695 69.8405L58.2439 33.5572C58.3336 33.4793 58.3883 33.3712 58.3964 33.2557C58.4045 33.1402 58.3654 33.0262 58.2873 32.9375C58.2474 32.8921 58.1985 32.8548 58.1433 32.8275C58.0882 32.8003 58.0279 32.7837 57.966 32.7788C57.9041 32.7739 57.8418 32.7808 57.7827 32.799C57.7236 32.8171 57.6688 32.8463 57.6216 32.8848L14.7351 67.9663C14.4723 68.1809 14.3091 68.4858 14.281 68.8146C14.2528 69.1434 14.3621 69.4695 14.5849 69.7218V69.7218Z" fill="url(#paint14_linear_9_125)"/>
<path d="M18.2198 72.7509C18.33 72.8824 18.4669 72.9914 18.6222 73.0713C18.7776 73.1511 18.9483 73.2003 19.1241 73.2158C19.2999 73.2313 19.4772 73.2127 19.6453 73.1613C19.8134 73.1099 19.9688 73.0267 20.1024 72.9166L62.8566 37.6938C62.9484 37.6183 63.006 37.5118 63.0175 37.3967C63.0289 37.2815 62.9932 37.1667 62.9178 37.076V37.076C62.8792 37.0294 62.8312 36.9906 62.7767 36.9618C62.7222 36.933 62.6622 36.9149 62.6003 36.9084C62.5383 36.9019 62.4757 36.9072 62.4159 36.924C62.3561 36.9408 62.3005 36.9688 62.2521 37.0064L18.4174 71.0048C18.1504 71.2128 17.9801 71.5125 17.9431 71.8392C17.9062 72.166 18.0056 72.4935 18.2198 72.7509V72.7509Z" fill="url(#paint15_linear_9_125)"/>
<path d="M29.8431 99.8289C32.3895 96.6701 39.1593 92.4095 47.1914 88.7158L54.3562 88.7026C54.3562 88.7026 57.347 94.31 47.9598 100.55C38.5726 106.791 25.035 105.097 29.8431 99.8289Z" fill="url(#paint16_linear_9_125)"/>
<path d="M51.8317 97.3011C48.1476 100.844 42.565 103.185 42.565 103.185L42.3675 102.449C42.0139 101.13 41.2217 98.1939 40.3308 94.941C38.7307 89.1019 36.8066 82.2589 36.4925 81.9048C31.2557 76.0054 24.4306 73.2403 23.5278 71.8503C23.1623 71.2852 22.4828 60.5168 22.5401 60.0196C22.6586 58.7726 25.7482 54.1258 26.9374 52.5625C28.1266 50.9991 30.4062 52.5399 30.0507 53.6418C29.6951 54.7437 28.2886 58.0437 28.2451 58.1473C30.6275 56.0754 34.201 53.7473 35.4772 53.6455C36.9054 53.5325 37.178 55.7551 36.0935 56.7685C35.2125 57.5935 31.5619 60.9124 31.4986 61.3136C31.4354 61.7148 30.8468 67.8816 30.8468 67.8816C32.1209 64.4478 34.9774 60.4415 35.8071 59.5166C36.4629 58.7858 39.1831 57.051 41.1091 56.4671C43.2544 55.8173 44.1118 57.5822 43.3216 58.3187C43.3216 58.3187 44.7399 58.4675 44.6649 59.6692C44.5898 60.8709 42.7665 62.7903 42.4208 63.3553C42.0751 63.9204 40.9076 68.3675 40.9076 68.3675C48.3253 72.7808 49.0839 74.1859 49.9768 76.0902C50.8697 77.9945 50.5892 82.2589 50.5892 82.2589C50.5892 82.2589 53.3805 86.8379 54.1568 88.2863C54.24 88.4183 54.3063 88.5593 54.3544 88.7064C55.9762 91.8952 54.3445 94.8807 51.8317 97.3011Z" fill="#F9CBA2"/>
<path d="M51.8318 97.3012L42.3675 102.449C42.0139 101.131 41.2218 98.194 40.3309 94.9411C44.6096 94.4721 50.4569 92.6808 54.1589 88.277C54.2421 88.409 54.3084 88.55 54.3564 88.6971C55.9763 91.8954 54.3446 94.8808 51.8318 97.3012Z" fill="#E5AD83"/>
<path d="M126.285 89.2112L159.396 89.6332C159.396 89.6332 171.809 116.318 171.924 135.363C172.038 154.407 171.357 173.776 171.357 173.776L137.312 174.53C137.312 174.53 130.695 114.37 126.285 89.2112Z" fill="url(#paint17_linear_9_125)"/>
<path d="M159.319 61.4549L159.006 60.8898C158.957 60.8016 158.873 60.7358 158.772 60.7068C158.672 60.6779 158.564 60.6881 158.471 60.7353C158.379 60.7825 158.31 60.8628 158.279 60.9586C158.249 61.0543 158.26 61.1576 158.309 61.2458L158.621 61.8108C163.574 70.6354 167.485 77.6065 165.28 82.6281C163.979 85.5985 160.496 87.8437 154.639 89.4937C154.589 89.5077 154.543 89.5309 154.502 89.562C154.462 89.593 154.428 89.6314 154.403 89.6749C154.378 89.7183 154.363 89.7661 154.357 89.8153C154.352 89.8645 154.356 89.9143 154.371 89.9618C154.386 90.0093 154.41 90.0535 154.443 90.0921C154.475 90.1306 154.516 90.1626 154.561 90.1863C154.607 90.21 154.657 90.2249 154.708 90.2302C154.76 90.2355 154.812 90.231 154.862 90.217C160.962 88.4992 164.609 86.1127 166.007 82.92C168.358 77.5669 164.368 70.4564 159.319 61.4549Z" fill="url(#paint18_linear_9_125)"/>
<path d="M156.028 36.0398C156.028 36.0398 157.973 38.3773 158.912 42.5005L160.858 42.2594C160.858 42.2594 159.884 34.4934 150.947 28.3416C142.01 22.1899 124.909 26.055 120.097 37.8612C117.963 43.0975 117.854 48.3188 116.936 53.1615C112.756 62.4663 103.491 65.8586 95.3642 67.7441C94.3232 67.9852 93.3118 68.2112 92.3339 68.4297C83.7053 70.3585 77.4629 71.7504 72.1648 78.8063C72.1331 78.8464 72.1102 78.8922 72.0973 78.9409C72.0845 78.9895 72.082 79.0402 72.0899 79.0898C72.0979 79.1394 72.1162 79.1871 72.1437 79.2299C72.1713 79.2726 72.2075 79.3098 72.2503 79.339C72.2931 79.3683 72.3416 79.3891 72.3929 79.4002C72.4442 79.4113 72.4974 79.4125 72.5493 79.4038C72.6011 79.3951 72.6506 79.3765 72.6948 79.3493C72.7391 79.322 72.7771 79.2867 72.8068 79.2452C77.9331 72.4135 84.049 71.046 92.5137 69.1568C93.5014 68.9383 94.5069 68.7122 95.5519 68.4693C103.041 66.7307 111.472 63.7415 116.215 56.1884C114.544 61.7977 110.826 66.7458 100.129 70.3962C91.3699 73.3835 77.6802 75.6702 74.6459 84.9468L76.651 85.7397C76.651 85.7397 79.8788 79.6332 92.6875 77.9549C92.6875 77.9549 82.518 80.7049 79.8769 87.1844C79.8769 87.1844 83.7882 89.6557 85.3034 93.1045C85.3034 93.1045 92.8811 89.7009 95.0324 86.5308C95.0324 86.5308 93.1735 91.2869 86.7198 94.8751L93.0332 101.221L133.134 92.2701C133.134 92.2701 144.45 82.2382 131.236 57.473C131.236 57.473 142.081 47.1133 135.384 34.9963C135.384 34.9963 140.485 42.3422 146.488 42.7981L142.397 34.742C142.397 34.742 146.382 38.6975 148.561 42.9487C148.561 42.9487 154.592 43.3556 157.691 42.4967C157.685 42.5004 157.179 38.479 156.028 36.0398Z" fill="url(#paint19_linear_9_125)"/>
<path d="M156.915 56.3655C162.904 70.0025 171.288 85.8622 148.675 89.8554L145.536 74.4346L156.915 56.3655Z" fill="url(#paint20_linear_9_125)"/>
<path d="M159.396 89.6333L159.115 95.947C159.115 95.947 156.124 96.966 149.278 101.812C140.408 101.522 139.045 98.5482 125.91 96.9491L126.06 93.8544L126.286 89.217C133.117 86.7891 134.608 79.7182 130.171 64.6421C130.171 64.6421 123.635 65.1054 123.174 60.161C122.595 53.9453 127.257 54.2881 131.228 57.4807C131.228 57.4807 142.069 47.1211 135.376 35.0097C135.533 35.232 140.566 42.3556 146.476 42.8058L142.387 34.7535C142.51 34.8741 146.405 38.7674 148.549 42.9584C148.549 42.9584 153.487 43.2918 156.719 42.7192C159.214 55.4257 163.611 74.5515 149.552 77.0586C149.552 77.0586 149.688 79.7596 149.961 82.7093C150.159 84.8226 150.421 87.0603 150.751 88.5088L159.396 89.6333Z" fill="#F9CBA2"/>
<path d="M143.602 173.047H105.933C109.935 159.47 107.118 148.504 104.965 137.824C102.811 127.144 101.506 124.074 101.506 124.074C98.268 127.088 89.6867 134.999 82.192 141.482C81.9213 141.716 81.6487 141.944 81.3781 142.162C70.8313 150.697 60.0731 148.077 52.8904 141.409C49.6547 138.395 45.1863 132.547 40.4077 125.056C39.8414 124.168 39.2718 123.258 38.6989 122.326C38.0497 121.266 37.3971 120.18 36.7413 119.068C35.1214 116.321 33.4957 113.417 31.9015 110.43C30.8993 108.546 29.9116 106.63 28.9384 104.683C27.3936 101.573 29.8431 99.8233 29.8431 99.8233C28.0356 102.961 31.9054 105.359 43.9694 99.2695C55.7094 93.3438 54.3542 88.6914 54.3542 88.6914L57.5149 94.9938L61.8036 103.53L63.3029 106.495L64.6857 109.235L68.2039 116.235C77.7295 108.002 78.9641 105.188 88.8412 96.2482C99.1648 86.9095 104.67 86.8586 111.288 87.7175C117.906 88.5765 120.448 89.5352 126.28 89.2112C126.28 89.2112 137.018 122.686 141.639 143.215C144.574 156.221 143.602 173.047 143.602 173.047Z" fill="url(#paint21_linear_9_125)"/>
<path d="M124.739 173.047H105.933C109.935 159.47 107.118 148.504 104.965 137.824C102.811 127.144 101.506 124.074 101.506 124.074C101.506 124.074 108.836 113.276 116.474 127.591C122.179 138.29 125.28 160.28 124.739 173.047Z" fill="url(#paint22_linear_9_125)"/>
<path d="M81.3761 142.168C70.8293 150.702 60.0711 148.082 52.8885 141.414C49.6527 138.401 45.1843 132.552 40.4057 125.061C39.8394 124.173 39.2699 123.264 38.697 122.332C38.0477 121.272 37.3952 120.186 36.7393 119.073C35.1195 116.327 33.4937 113.423 31.8995 110.435C30.8973 108.552 29.9096 106.636 28.9364 104.688C27.3916 101.579 29.8411 99.8289 29.8411 99.8289C28.0336 102.967 31.9035 105.365 43.9674 99.2751C55.7074 93.3494 54.3523 88.697 54.3523 88.697L57.5129 94.9994L61.8016 103.536L63.3029 106.495L64.6857 109.235L68.204 116.235C68.204 116.235 77.8302 132.39 81.3761 142.168Z" fill="url(#paint23_linear_9_125)"/>
<path d="M226.667 135.088L226.304 135.677C224.895 137.981 223.238 140.834 221.247 144.114C220.797 144.852 220.333 145.612 219.852 146.393C219.193 147.451 218.503 148.548 217.78 149.681C214.783 154.36 211.188 159.617 206.822 165.198C202.575 170.629 188.551 172.128 180.655 162.85C180.055 162.133 179.508 161.378 179.018 160.589C175.97 155.75 174.395 149.493 174.395 149.493C174.395 149.493 173.882 166.468 175.308 173.592L168.591 172.75C168.591 172.75 168.321 160.576 168.254 152.804C168.186 145.033 169.204 137.327 165.605 127.032C162.005 116.736 153.809 88.8911 153.809 88.8911C160.417 88.859 172.276 89.2678 179.002 95.8283C184.877 101.56 193.124 126.834 195.118 133.138C195.315 133.765 195.451 134.204 195.513 134.417L195.558 134.566C195.964 133.846 196.366 133.122 196.765 132.394C197.304 131.416 197.838 130.43 198.369 129.437C199.851 126.674 201.305 123.853 202.731 120.972C204.351 117.707 205.938 114.37 207.492 110.959C207.46 111.147 206.765 115.555 210.21 119.855C212.096 122.208 215.419 124.862 219.072 126.427C222.244 127.787 225.666 128.324 228.607 127.128C231.894 125.792 230.478 119.045 222.645 116.267C222.734 116.015 222.823 115.764 222.908 115.513C226.306 116.548 231.402 119.881 231.896 123.922C232.258 126.924 229.68 130.228 226.667 135.088Z" fill="url(#paint24_linear_9_125)"/>
<path d="M226.667 135.088L226.303 135.677C224.895 137.981 223.238 140.834 221.246 144.114C220.797 144.852 220.332 145.612 219.852 146.393C219.193 147.451 218.502 148.548 217.779 149.682C214.783 154.36 211.187 159.617 206.822 165.198C202.575 170.629 188.551 172.128 180.655 162.85C180.055 162.134 179.507 161.378 179.018 160.589C182.876 155.285 190.641 144.261 194.71 136.075C194.982 135.53 195.248 134.978 195.51 134.419L195.556 134.568C195.962 133.848 196.364 133.124 196.763 132.396C197.302 131.418 197.836 130.432 198.367 129.439C199.849 126.676 201.302 123.855 202.729 120.974C204.349 117.709 205.935 114.371 207.489 110.961C207.458 111.149 206.763 115.557 210.208 119.857C212.094 122.21 215.417 124.864 219.069 126.429C222.242 127.789 225.663 128.326 228.605 127.13C231.892 125.794 230.476 119.047 222.643 116.269C222.732 116.016 222.821 115.766 222.906 115.515C226.303 116.549 231.4 119.883 231.894 123.924C232.257 126.924 229.679 130.228 226.667 135.088Z" fill="url(#paint25_linear_9_125)"/>
<path d="M223.629 168.532C198.369 178.189 170.997 182.998 147.747 183C124.411 183 102.312 179.966 82.6602 174.064L95.2377 168.532H189.159C193.553 169.973 198.181 169.789 201.759 168.532H223.629Z" fill="url(#paint26_linear_9_125)"/>
<path opacity="0.1" d="M223.629 168.532C198.369 178.189 170.997 182.998 147.747 183C124.411 183 102.312 179.966 82.6602 174.064L95.2377 168.532H189.159C193.553 169.973 198.181 169.789 201.759 168.532H223.629Z" fill="#52BEB8"/>
<path d="M131.825 60.6639C131.767 60.6639 131.711 60.6479 131.662 60.6178C131.614 60.5877 131.576 60.5448 131.553 60.4944C131.53 60.444 131.523 60.3883 131.532 60.3341C131.542 60.2799 131.568 60.2296 131.607 60.1892C138.304 53.2991 138.916 46.8705 138.241 42.689C137.512 38.1515 135.167 35.1999 135.143 35.1698C135.095 35.1103 135.074 35.0351 135.084 34.9608C135.095 34.8864 135.135 34.819 135.198 34.7733C135.26 34.7276 135.339 34.7073 135.417 34.717C135.495 34.7268 135.566 34.7656 135.614 34.8251C135.714 34.9494 138.065 37.9028 138.824 42.576C139.521 46.8856 138.912 53.5007 132.044 60.5716C132.016 60.6007 131.982 60.6239 131.945 60.6398C131.907 60.6557 131.866 60.6639 131.825 60.6639Z" fill="#654B1E"/>
<path d="M137.299 46.4655C137.21 46.4655 137.125 46.4373 137.055 46.3853C136.986 46.3334 136.936 46.2608 136.915 46.179C136.894 46.0973 136.902 46.0112 136.938 45.9344C136.975 45.8576 137.037 45.7946 137.115 45.7554C139.762 44.4238 142.413 44.1695 144.782 45.019C144.832 45.035 144.878 45.0606 144.918 45.0941C144.958 45.1277 144.991 45.1686 145.013 45.2144C145.036 45.2602 145.049 45.3099 145.051 45.3606C145.054 45.4112 145.045 45.4618 145.026 45.5093C145.008 45.5567 144.979 45.6001 144.942 45.6367C144.905 45.6734 144.861 45.7025 144.812 45.7225C144.764 45.7425 144.711 45.7529 144.658 45.7531C144.605 45.7532 144.552 45.7431 144.503 45.7234C141.787 44.7496 139.185 45.5652 137.482 46.4222C137.426 46.4506 137.363 46.4655 137.299 46.4655Z" fill="#654B1E"/>
<path d="M150.398 45.6065C150.319 45.6066 150.242 45.5842 150.177 45.5422C150.111 45.5002 150.06 45.4406 150.031 45.3709C150.001 45.3013 149.994 45.2248 150.011 45.1513C150.027 45.0778 150.066 45.0107 150.123 44.9586C151.988 43.2407 155.162 43.2784 156.31 44.1411C156.392 44.203 156.445 44.2936 156.458 44.3929C156.47 44.4921 156.44 44.5919 156.375 44.6704C156.31 44.7488 156.215 44.7994 156.111 44.8111C156.007 44.8227 155.902 44.7945 155.82 44.7325C155.006 44.1222 152.264 44.0243 150.67 45.4991C150.597 45.5671 150.5 45.6056 150.398 45.6065Z" fill="#654B1E"/>
<path d="M131.076 60.6637C131.012 60.6638 130.949 60.644 130.898 60.6072C130.863 60.5808 127.342 58.0719 124.822 58.5917C124.747 58.6038 124.669 58.5878 124.606 58.5469C124.543 58.5061 124.499 58.4436 124.483 58.3725C124.467 58.3014 124.48 58.2271 124.52 58.1652C124.56 58.1032 124.624 58.0583 124.697 58.0398C127.483 57.4748 131.104 60.0458 131.256 60.157C131.306 60.1927 131.342 60.2424 131.361 60.2992C131.379 60.356 131.379 60.4169 131.359 60.4733C131.339 60.5296 131.301 60.5785 131.25 60.613C131.199 60.6476 131.138 60.6659 131.076 60.6655V60.6637Z" fill="#F4EAC8"/>
<path d="M128.603 62.5267C127.22 62.5267 126.43 61.7733 126.157 60.9916C125.812 60.0253 126.171 58.7558 127.368 58.3056C127.441 58.2804 127.521 58.2832 127.591 58.3134C127.662 58.3436 127.717 58.3989 127.745 58.4674C127.774 58.536 127.773 58.6124 127.743 58.6803C127.713 58.7483 127.657 58.8024 127.585 58.8312C126.716 59.157 126.463 60.0932 126.718 60.8089C127.003 61.6075 127.939 62.2856 129.711 61.7959C129.749 61.7838 129.789 61.7791 129.829 61.7821C129.869 61.7852 129.908 61.7959 129.943 61.8136C129.978 61.8313 130.01 61.8557 130.035 61.8852C130.06 61.9148 130.079 61.9489 130.09 61.9855C130.101 62.0222 130.104 62.0606 130.099 62.0984C130.094 62.1362 130.082 62.1727 130.061 62.2057C130.041 62.2387 130.015 62.2674 129.982 62.2902C129.95 62.313 129.914 62.3294 129.875 62.3384C129.462 62.4578 129.034 62.5212 128.603 62.5267V62.5267Z" fill="#F4EAC8"/>
<path d="M141.399 54.9861C141.967 54.9449 142.375 54.2573 142.311 53.4503C142.246 52.6433 141.734 52.0225 141.166 52.0637C140.598 52.1049 140.19 52.7925 140.254 53.5994C140.319 54.4064 140.831 55.0273 141.399 54.9861Z" fill="#654B1E"/>
<path d="M140.993 52.8543C140.954 52.8569 140.915 52.8522 140.878 52.8404C140.841 52.8286 140.807 52.8099 140.777 52.7855C140.718 52.7363 140.681 52.6665 140.676 52.5915C140.67 52.5166 140.696 52.4427 140.748 52.386C140.8 52.3293 140.873 52.2945 140.951 52.2892C141.544 52.212 142.152 51.6676 142.077 51.0819C142.068 51.0069 142.09 50.9314 142.138 50.8719C142.187 50.8123 142.258 50.7737 142.337 50.7645C142.416 50.7552 142.495 50.7761 142.557 50.8226C142.62 50.869 142.66 50.9372 142.67 51.0122C142.792 51.9539 141.909 52.7337 141.038 52.8505L140.993 52.8543Z" fill="#654B1E"/>
<path d="M154.611 54.0558C155.179 54.0146 155.587 53.3271 155.523 52.5201C155.459 51.7131 154.946 51.0922 154.378 51.1334C153.81 51.1746 153.402 51.8622 153.467 52.6692C153.531 53.4762 154.043 54.097 154.611 54.0558Z" fill="#654B1E"/>
<path d="M154.197 51.9239C154.118 51.9292 154.04 51.9044 153.981 51.8552C153.921 51.8059 153.885 51.7361 153.879 51.6612C153.874 51.5862 153.9 51.5123 153.952 51.4556C154.003 51.3989 154.076 51.3641 154.155 51.3589C154.748 51.2816 155.356 50.7373 155.281 50.1515C155.276 50.1144 155.279 50.0768 155.29 50.0407C155.3 50.0047 155.318 49.971 155.342 49.9415C155.366 49.912 155.396 49.8874 155.43 49.869C155.464 49.8505 155.502 49.8387 155.541 49.8341C155.58 49.8295 155.619 49.8323 155.657 49.8423C155.695 49.8523 155.73 49.8692 155.761 49.8922C155.792 49.9152 155.818 49.9438 155.837 49.9763C155.856 50.0089 155.869 50.0447 155.874 50.0818C155.996 51.0236 155.113 51.8034 154.242 51.9202L154.197 51.9239Z" fill="#654B1E"/>
<path d="M150.277 61.9841C149.881 61.9822 149.486 61.9615 149.092 61.9219C149.013 61.9144 148.941 61.8775 148.891 61.8192C148.841 61.7609 148.817 61.6861 148.825 61.6111C148.833 61.5362 148.872 61.4673 148.933 61.4196C148.994 61.372 149.073 61.3494 149.151 61.3569C151.083 61.5452 152.263 61.2985 152.563 60.6486C152.958 59.786 151.854 58.2226 150.558 57.1245C148.938 55.7514 148.634 52.764 149.906 50.7316C149.926 50.6997 149.952 50.6719 149.983 50.6497C150.015 50.6275 150.05 50.6114 150.088 50.6023C150.126 50.5932 150.165 50.5913 150.204 50.5967C150.242 50.6021 150.279 50.6146 150.313 50.6337C150.346 50.6527 150.375 50.6779 150.399 50.7077C150.422 50.7375 150.439 50.7714 150.448 50.8074C150.458 50.8434 150.46 50.8809 150.454 50.9177C150.449 50.9544 150.435 50.9898 150.415 51.0217C149.276 52.8412 149.527 55.4952 150.951 56.7026C152.039 57.6255 153.716 59.543 153.106 60.8766C152.768 61.6149 151.818 61.9841 150.277 61.9841Z" fill="#F4EAC8"/>
<path d="M152.108 65.0562C152.108 65.0562 152.025 69.6125 149.123 69.8762C146.834 70.0853 144.28 67.9117 142.407 65.2803C141.911 64.5838 141.464 63.8571 141.068 63.1048C144.537 64.493 148.319 65.3651 151.247 65.1504C151.543 65.1391 151.832 65.107 152.108 65.0562Z" fill="url(#paint27_linear_9_125)"/>
<path d="M151.247 65.158C150.852 65.838 150.115 66.9022 149.702 66.9888C149.202 67.0906 145.53 66.6837 142.407 65.2936C141.911 64.5971 141.464 63.8704 141.068 63.1181C144.537 64.5006 148.319 65.3633 151.247 65.158Z" fill="url(#paint28_linear_9_125)"/>
<path d="M149.967 82.696C137.806 85.0693 133.334 66.8287 133.334 66.8287C140.112 75.836 144.88 77.5086 149.558 77.0528C149.558 77.0528 149.685 79.7482 149.967 82.696Z" fill="#E5AD83"/>
<path d="M101.504 124.361C101.445 124.361 101.388 124.344 101.34 124.313C101.291 124.283 101.253 124.239 101.231 124.188C101.208 124.136 101.202 124.08 101.213 124.025C101.224 123.97 101.251 123.92 101.292 123.88L105.393 119.893C105.42 119.865 105.453 119.842 105.489 119.827C105.525 119.811 105.564 119.802 105.604 119.801C105.644 119.8 105.683 119.807 105.72 119.821C105.757 119.835 105.791 119.856 105.819 119.882C105.848 119.909 105.87 119.94 105.885 119.975C105.901 120.01 105.908 120.048 105.908 120.086C105.908 120.124 105.899 120.161 105.884 120.196C105.868 120.231 105.845 120.262 105.816 120.288L101.715 124.276C101.687 124.303 101.655 124.324 101.618 124.339C101.582 124.353 101.543 124.361 101.504 124.361V124.361Z" fill="#52BEB8"/>
<path d="M72.7614 124.811C72.7074 124.811 72.6543 124.797 72.608 124.77C72.5617 124.744 72.5239 124.705 72.4987 124.66L67.9354 116.372C67.899 116.306 67.8918 116.228 67.9153 116.157C67.9388 116.085 67.9912 116.025 68.0609 115.991C68.1306 115.956 68.2119 115.949 68.2869 115.972C68.3619 115.994 68.4245 116.044 68.4609 116.11L73.0241 124.398C73.048 124.441 73.0598 124.489 73.0583 124.538C73.0568 124.587 73.0421 124.634 73.0157 124.676C72.9892 124.718 72.9519 124.752 72.9073 124.776C72.8628 124.8 72.8125 124.813 72.7614 124.812V124.811Z" fill="#52BEB8"/>
<path d="M174.395 149.781C174.317 149.781 174.241 149.751 174.186 149.698C174.13 149.645 174.099 149.574 174.099 149.499C174.099 135.937 170.557 125.703 167.13 115.815C166.757 114.74 166.389 113.672 166.025 112.613C166.004 112.542 166.013 112.467 166.049 112.402C166.085 112.338 166.146 112.289 166.218 112.267C166.291 112.244 166.371 112.249 166.44 112.281C166.509 112.313 166.562 112.369 166.588 112.437C166.951 113.5 167.319 114.567 167.693 115.64C171.134 125.572 174.694 135.841 174.692 149.501C174.691 149.575 174.66 149.646 174.604 149.699C174.549 149.752 174.474 149.781 174.395 149.781Z" fill="#52BEB8"/>
<path d="M191.589 142.283C191.511 142.283 191.435 142.253 191.38 142.2C191.324 142.147 191.293 142.075 191.293 142C191.293 141.665 193.709 137.291 194.454 135.956L194.596 135.703C194.835 135.276 195.072 134.852 195.301 134.447C195.339 134.381 195.402 134.332 195.477 134.311C195.553 134.289 195.634 134.297 195.703 134.333C195.772 134.369 195.824 134.429 195.846 134.501C195.869 134.573 195.86 134.65 195.823 134.716C195.594 135.121 195.358 135.543 195.119 135.969L194.979 136.221C193.265 139.31 191.984 141.75 191.89 142.041C191.879 142.11 191.843 142.172 191.787 142.216C191.732 142.261 191.662 142.284 191.589 142.283Z" fill="#52BEB8"/>
<path d="M61.8136 103.536C60.4545 107.925 57.1555 112.317 51.1304 116.239C46.6047 119.186 41.8124 119.817 36.7395 119.064C35.1196 116.318 33.4938 113.423 31.8997 110.426C37.0358 111.439 42.0988 110.754 48.4063 107.062C54.6783 103.391 56.8315 99.6218 57.5249 94.9901L61.8136 103.536Z" fill="#DDF1F3"/>
<path d="M64.68 109.239C63.0417 114.368 59.5543 118.778 54.8344 121.692C49.8959 124.745 45.1944 125.372 40.4138 125.061C39.8475 124.175 39.278 123.265 38.7051 122.332C45.0264 122.733 49.0978 121.36 53.6334 118.239C57.4203 115.632 61.14 111.912 63.313 106.499L64.68 109.239Z" fill="#DDF1F3"/>
<path d="M226.667 135.088L226.304 135.677C224.895 137.981 223.238 140.834 221.246 144.114C210.429 144.142 200.973 139.295 198.367 129.444C199.849 126.682 201.303 123.86 202.729 120.98C205.605 128.872 216.314 135.739 226.667 135.088Z" fill="#DDF1F3"/>
<path d="M219.852 146.393C219.193 147.451 218.503 148.548 217.78 149.681C207.999 152.65 198.689 147.64 194.711 136.08C194.997 135.568 195.282 135.057 195.556 134.573C195.96 133.854 196.363 133.13 196.763 132.402C198.381 139.286 205.615 148.89 219.852 146.393Z" fill="#DDF1F3"/>
<path d="M244.282 106.133C244.22 106.133 244.16 106.115 244.109 106.081C244.059 106.047 244.021 105.999 244.001 105.943C243.981 105.888 243.979 105.828 243.997 105.771C244.014 105.715 244.049 105.665 244.098 105.629C245.941 104.246 247.498 102.361 248.163 101.195C248.201 101.129 248.264 101.08 248.34 101.058C248.415 101.037 248.496 101.045 248.565 101.081C248.635 101.116 248.686 101.177 248.708 101.249C248.731 101.321 248.722 101.398 248.685 101.464C247.992 102.681 246.376 104.642 244.465 106.073C244.413 106.112 244.348 106.134 244.282 106.133V106.133Z" fill="#F4EAC8"/>
<path d="M231.108 107.972C231.038 107.972 230.969 107.948 230.916 107.905C230.862 107.862 230.826 107.802 230.814 107.736C230.803 107.67 230.816 107.602 230.852 107.544C230.888 107.487 230.945 107.443 231.011 107.422C232.917 106.787 235.005 105.459 236.594 103.867C236.62 103.839 236.652 103.817 236.688 103.801C236.724 103.785 236.763 103.776 236.802 103.774C236.842 103.773 236.881 103.779 236.918 103.793C236.955 103.806 236.989 103.826 237.018 103.852C237.047 103.878 237.069 103.91 237.085 103.944C237.101 103.979 237.109 104.016 237.11 104.054C237.11 104.092 237.103 104.129 237.088 104.164C237.073 104.199 237.05 104.231 237.022 104.257C235.373 105.911 233.198 107.293 231.207 107.956C231.175 107.967 231.142 107.972 231.108 107.972V107.972Z" fill="#F4EAC8"/>
<path d="M262.541 88.2789C262.122 89.2602 261.649 90.2197 261.124 91.1532C249.058 93.0104 229.057 91.7955 215.942 86.3105C215.642 85.4045 215.406 84.48 215.237 83.5436C229.43 88.2243 240.864 91.7465 262.541 88.2789Z" fill="url(#paint29_linear_9_125)"/>
<path d="M261.798 93.1591C246.174 93.1591 248.031 86.252 239.383 85.5438C242.261 84.0124 246.145 85.5438 249.596 87.8926C253.047 90.2414 262.568 92.7692 265.451 89.537C267.343 87.4123 266.529 85.3931 265.745 84.263C266.364 84.0098 266.953 83.694 267.501 83.3212C270.715 86.5176 269.214 93.1591 261.798 93.1591Z" fill="url(#paint30_linear_9_125)"/>
<path d="M260.836 92.5034C260.297 92.5034 259.771 92.4752 259.277 92.4281C256.199 92.1105 253.222 91.1924 250.532 89.7308C246.072 87.2106 243.122 85.5436 239.393 85.732C239.367 85.7333 239.341 85.7296 239.316 85.7213C239.292 85.713 239.269 85.7002 239.25 85.6835C239.231 85.6669 239.215 85.6469 239.204 85.6245C239.193 85.6021 239.187 85.5778 239.185 85.5531C239.184 85.5283 239.188 85.5036 239.197 85.4802C239.205 85.4569 239.219 85.4354 239.236 85.417C239.254 85.3987 239.275 85.3838 239.298 85.3732C239.322 85.3626 239.347 85.3565 239.373 85.3553C243.223 85.1669 246.212 86.8508 250.734 89.4068C255.508 92.1041 263.817 93.6204 266.502 89.9606C268.39 87.3839 267.347 85.0633 266.557 83.8955C266.543 83.8747 266.533 83.8515 266.528 83.8271C266.524 83.8028 266.524 83.7778 266.529 83.7536C266.535 83.7293 266.545 83.7064 266.56 83.686C266.575 83.6656 266.593 83.6481 266.615 83.6346C266.637 83.6212 266.661 83.6119 266.687 83.6074C266.712 83.6029 266.739 83.6032 266.764 83.6084C266.789 83.6135 266.814 83.6234 266.835 83.6375C266.856 83.6515 266.875 83.6694 266.889 83.6902C267.732 84.9296 268.846 87.4197 266.826 90.1772C265.478 92.0137 263.047 92.5034 260.836 92.5034Z" fill="#E94E4E"/>
<path d="M272.981 64.7644C273.346 66.0584 279.539 62.2498 278.314 60.694C276.827 58.7841 272.6 63.4101 272.981 64.7644Z" fill="url(#paint31_linear_9_125)"/>
<path d="M255.346 46.1998C254.426 43.0165 255.394 38.5902 258.309 38.9235C260.593 39.1835 255.619 41.9636 255.346 46.1998Z" fill="url(#paint32_linear_9_125)"/>
<path d="M219.464 80.8991C219.441 80.8993 219.417 80.8954 219.395 80.8878C219.261 80.8407 216.102 79.703 214.457 78.2508C214.436 78.2346 214.418 78.2145 214.406 78.1917C214.393 78.1689 214.386 78.1439 214.384 78.1182C214.382 78.0925 214.385 78.0667 214.394 78.0424C214.403 78.018 214.417 77.9957 214.435 77.9767C214.453 77.9578 214.476 77.9426 214.5 77.9321C214.525 77.9216 214.552 77.916 214.579 77.9158C214.606 77.9155 214.632 77.9205 214.657 77.9305C214.682 77.9405 214.705 77.9553 214.723 77.9739C216.304 79.3696 219.502 80.5167 219.534 80.528C219.577 80.5432 219.614 80.5726 219.637 80.6111C219.661 80.6497 219.669 80.6948 219.661 80.7385C219.652 80.7823 219.628 80.8218 219.592 80.8501C219.556 80.8785 219.511 80.8938 219.464 80.8934V80.8991Z" fill="#654B1E"/>
<path d="M219.714 67.6237C218.603 69.2567 218.2 73.2894 219.826 76.3295C221.452 79.3696 225.972 82.4116 230.237 78.328L219.714 67.6237Z" fill="url(#paint33_linear_9_125)"/>
<path d="M219.713 67.6235C220.899 66.5329 223.528 66.9285 227.155 69.9403C230.782 72.9521 232.635 77.3446 229.047 79.2564C227.329 80.1719 223.362 78.2261 221.235 75.4893C218.919 72.5189 218.793 68.4673 219.713 67.6235Z" fill="url(#paint34_linear_9_125)"/>
<path d="M223.763 71.4943C225.223 69.9592 229.336 72.2025 229.517 74.7171C229.66 76.6666 227.208 77.987 224.923 76.1034C223.498 74.928 222.941 72.3626 223.763 71.4943Z" fill="url(#paint35_linear_9_125)"/>
<path d="M226.973 58.1531C226.359 56.8986 224.867 56.0567 224.208 56.488C223.708 56.812 223.868 58.4808 224.127 59.223C224.522 60.3531 225.928 61.0199 226.746 60.6526C227.307 60.3983 227.4 59.029 226.973 58.1531ZM226.398 59.7654C226.013 59.9368 225.353 59.6261 225.166 59.093C225.045 58.7445 224.968 57.9629 225.205 57.8065C225.517 57.6031 226.219 57.9949 226.507 58.5901C226.708 59.0007 226.663 59.6468 226.398 59.7654Z" fill="url(#paint36_linear_9_125)"/>
<path d="M216.642 52.0784C215.425 51.325 213.691 51.3702 213.369 52.0784C213.126 52.6077 214.192 53.9394 214.826 54.4366C215.794 55.1901 217.353 55.045 217.841 54.3199C218.177 53.8132 217.493 52.602 216.642 52.0784ZM217.055 53.7341C216.826 54.0769 216.093 54.1485 215.638 53.7906C215.34 53.5551 214.838 52.9298 214.953 52.6811C215.103 52.3515 215.919 52.3308 216.492 52.6811C216.891 52.9317 217.213 53.5005 217.047 53.7341H217.055Z" fill="url(#paint37_linear_9_125)"/>
<path d="M229.278 35.8251C228.852 35.2939 227.372 35.6009 226.501 36.4806C225.894 37.0946 225.578 38.2568 225.972 38.6147C226.546 39.1326 227.902 38.9537 228.557 38.1155C228.986 37.5674 229.6 36.2244 229.278 35.8251ZM227.728 37.7331C227.421 38.1268 226.783 38.2116 226.513 37.9686C226.327 37.801 226.477 37.2528 226.762 36.9646C227.171 36.5521 227.868 36.3996 228.067 36.6557C228.22 36.8441 227.931 37.4751 227.728 37.7331V37.7331Z" fill="url(#paint38_linear_9_125)"/>
<path d="M236.534 46.5523C236.248 45.6105 235.096 43.6214 233.992 43.9529C233.279 44.1658 232.872 45.893 233.178 47.2492C233.484 48.6054 234.458 49.4793 235.537 49.6733C236.615 49.8673 236.819 47.5016 236.534 46.5523ZM235.418 48.4057C235.137 48.3425 234.882 48.2015 234.685 48.0004C234.488 47.7993 234.357 47.5471 234.31 47.2755C234.166 46.6389 234.357 45.8271 234.691 45.7273C235.211 45.5709 235.752 46.5014 235.886 46.9478C236.021 47.3942 235.928 48.4961 235.418 48.4057Z" fill="url(#paint39_linear_9_125)"/>
<path d="M221.719 60.871C220.917 60.6299 220.079 62.0671 219.872 62.7546C219.664 63.4421 219.812 65.1637 220.595 65.0149C221.377 64.8661 222.086 64.2407 222.309 63.2537C222.532 62.2667 222.234 61.0255 221.719 60.871ZM221.483 63.2763C221.45 63.4746 221.356 63.659 221.213 63.8062C221.07 63.9535 220.884 64.0568 220.679 64.1032C220.312 64.1691 220.241 63.363 220.34 63.039C220.438 62.715 220.83 62.0388 221.207 62.1518C221.45 62.2309 221.59 62.813 221.483 63.2763Z" fill="url(#paint40_linear_9_125)"/>
<path d="M150.368 65.5647C147.687 65.5647 144.304 64.8113 140.914 63.4608C140.817 63.4221 140.74 63.3483 140.701 63.2558C140.661 63.1632 140.662 63.0594 140.702 62.9673C140.743 62.8751 140.82 62.8021 140.917 62.7643C141.014 62.7265 141.123 62.727 141.22 62.7657C144.892 64.2349 148.529 64.9695 151.218 64.783C151.498 64.7661 151.775 64.7341 152.043 64.6926C152.095 64.6846 152.147 64.6863 152.197 64.6975C152.248 64.7088 152.296 64.7294 152.338 64.7583C152.38 64.7872 152.416 64.8237 152.443 64.8657C152.471 64.9078 152.489 64.9546 152.498 65.0034C152.506 65.0523 152.504 65.1022 152.493 65.1504C152.481 65.1987 152.459 65.2442 152.429 65.2844C152.399 65.3246 152.36 65.3588 152.316 65.3849C152.272 65.411 152.223 65.4286 152.172 65.4366C151.879 65.4819 151.579 65.5158 151.273 65.5346C150.967 65.5534 150.672 65.5647 150.368 65.5647Z" fill="#F4EAC8"/>
<defs>
<linearGradient id="paint0_linear_9_125" x1="229.308" y1="77.5743" x2="228.343" y2="68.8109" gradientUnits="userSpaceOnUse">
<stop stop-color="#C98348"/>
<stop offset="1" stop-color="#DD9127"/>
</linearGradient>
<linearGradient id="paint1_linear_9_125" x1="228.093" y1="74.152" x2="235.578" y2="59.6234" gradientUnits="userSpaceOnUse">
<stop stop-color="#51823B"/>
<stop offset="1" stop-color="#AAC76F"/>
</linearGradient>
<linearGradient id="paint2_linear_9_125" x1="226.934" y1="83.4024" x2="228.608" y2="98.9183" gradientUnits="userSpaceOnUse">
<stop stop-color="#E94E4E"/>
<stop offset="1" stop-color="#D33332"/>
</linearGradient>
<linearGradient id="paint3_linear_9_125" x1="225.517" y1="77.6706" x2="225.695" y2="82.222" gradientUnits="userSpaceOnUse">
<stop stop-color="#E94E4E"/>
<stop offset="1" stop-color="#D33332"/>
</linearGradient>
<linearGradient id="paint4_linear_9_125" x1="219.34" y1="69.733" x2="212.202" y2="60.4968" gradientUnits="userSpaceOnUse">
<stop stop-color="#51823B"/>
<stop offset="1" stop-color="#AAC76F"/>
</linearGradient>
<linearGradient id="paint5_linear_9_125" x1="259.621" y1="72.4155" x2="265.612" y2="68.4491" gradientUnits="userSpaceOnUse">
<stop stop-color="#C98348"/>
<stop offset="1" stop-color="#DD9127"/>
</linearGradient>
<linearGradient id="paint6_linear_9_125" x1="241.627" y1="76.3918" x2="250.762" y2="62.2546" gradientUnits="userSpaceOnUse">
<stop stop-color="#ECDE74"/>
<stop offset="1" stop-color="#F3CE63"/>
</linearGradient>
<linearGradient id="paint7_linear_9_125" x1="242.265" y1="62.9165" x2="242.816" y2="78.5087" gradientUnits="userSpaceOnUse">
<stop stop-color="#ECDE74"/>
<stop offset="1" stop-color="#F3CE63"/>
</linearGradient>
<linearGradient id="paint8_linear_9_125" x1="225.274" y1="74.3084" x2="170.092" y2="87.8456" gradientUnits="userSpaceOnUse">
<stop stop-color="#ECDE74"/>
<stop offset="1" stop-color="#F3CE63"/>
</linearGradient>
<linearGradient id="paint9_linear_9_125" x1="242.506" y1="66.7362" x2="247.598" y2="75.2871" gradientUnits="userSpaceOnUse">
<stop stop-color="#FFF1E0"/>
<stop offset="1" stop-color="#ECDE74"/>
</linearGradient>
<linearGradient id="paint10_linear_9_125" x1="242.587" y1="68.6143" x2="245.556" y2="77.8728" gradientUnits="userSpaceOnUse">
<stop stop-color="#F3CE63"/>
<stop offset="1" stop-color="#D2A651"/>
</linearGradient>
<linearGradient id="paint11_linear_9_125" x1="240.232" y1="78.9853" x2="239.233" y2="76.4876" gradientUnits="userSpaceOnUse">
<stop stop-color="#F9CBA2"/>
<stop offset="1" stop-color="#FCD7BA"/>
</linearGradient>
<linearGradient id="paint12_linear_9_125" x1="230.853" y1="117.97" x2="223.255" y2="124.14" gradientUnits="userSpaceOnUse">
<stop stop-color="#45A5A5"/>
<stop offset="1" stop-color="#308B85"/>
</linearGradient>
<linearGradient id="paint13_linear_9_125" x1="239.616" y1="86.3708" x2="248.273" y2="98.4395" gradientUnits="userSpaceOnUse">
<stop stop-color="white"/>
<stop offset="1" stop-color="#DDF1F3"/>
</linearGradient>
<linearGradient id="paint14_linear_9_125" x1="34.2543" y1="24.8777" x2="35.8338" y2="46.7385" gradientUnits="userSpaceOnUse">
<stop stop-color="#E8E8EB"/>
<stop offset="1" stop-color="#D3D3D3"/>
</linearGradient>
<linearGradient id="paint15_linear_9_125" x1="38.0867" y1="24.6011" x2="39.6644" y2="46.4619" gradientUnits="userSpaceOnUse">
<stop stop-color="#E8E8EB"/>
<stop offset="1" stop-color="#D3D3D3"/>
</linearGradient>
<linearGradient id="paint16_linear_9_125" x1="41.1584" y1="93.3249" x2="42.6322" y2="100.162" gradientUnits="userSpaceOnUse">
<stop stop-color="#45A5A5"/>
<stop offset="1" stop-color="#308B85"/>
</linearGradient>
<linearGradient id="paint17_linear_9_125" x1="180.406" y1="97.2315" x2="131.638" y2="155.419" gradientUnits="userSpaceOnUse">
<stop stop-color="#F3CE63"/>
<stop offset="1" stop-color="#D2A651"/>
</linearGradient>
<linearGradient id="paint18_linear_9_125" x1="131.232" y1="34.7232" x2="150.796" y2="69.144" gradientUnits="userSpaceOnUse">
<stop offset="0.04" stop-color="#654B1E"/>
<stop offset="1" stop-color="#2E1D12"/>
</linearGradient>
<linearGradient id="paint19_linear_9_125" x1="108.487" y1="47.6539" x2="128.052" y2="82.0729" gradientUnits="userSpaceOnUse">
<stop offset="0.04" stop-color="#654B1E"/>
<stop offset="1" stop-color="#2E1D12"/>
</linearGradient>
<linearGradient id="paint20_linear_9_125" x1="152.697" y1="68.4806" x2="157.041" y2="87.6374" gradientUnits="userSpaceOnUse">
<stop offset="0.04" stop-color="#654B1E"/>
<stop offset="1" stop-color="#2E1D12"/>
</linearGradient>
<linearGradient id="paint21_linear_9_125" x1="76.5086" y1="108.024" x2="126.527" y2="140.181" gradientUnits="userSpaceOnUse">
<stop stop-color="#52BEB8"/>
<stop offset="1" stop-color="#308B85"/>
</linearGradient>
<linearGradient id="paint22_linear_9_125" x1="46.6737" y1="166.796" x2="108.714" y2="146.907" gradientUnits="userSpaceOnUse">
<stop stop-color="#52BEB8"/>
<stop offset="1" stop-color="#308B85"/>
</linearGradient>
<linearGradient id="paint23_linear_9_125" x1="47.4007" y1="130.122" x2="80.09" y2="89.9769" gradientUnits="userSpaceOnUse">
<stop stop-color="#52BEB8"/>
<stop offset="1" stop-color="#308B85"/>
</linearGradient>
<linearGradient id="paint24_linear_9_125" x1="198.756" y1="106.894" x2="165.996" y2="146.296" gradientUnits="userSpaceOnUse">
<stop stop-color="#52BEB8"/>
<stop offset="1" stop-color="#308B85"/>
</linearGradient>
<linearGradient id="paint25_linear_9_125" x1="212.067" y1="145.451" x2="191.429" y2="132.667" gradientUnits="userSpaceOnUse">
<stop stop-color="#52BEB8"/>
<stop offset="1" stop-color="#308B85"/>
</linearGradient>
<linearGradient id="paint26_linear_9_125" x1="153.143" y1="168.89" x2="153.143" y2="182.216" gradientUnits="userSpaceOnUse">
<stop stop-color="white"/>
<stop offset="1" stop-color="#DDF1F3"/>
</linearGradient>
<linearGradient id="paint27_linear_9_125" x1="149.011" y1="72.6018" x2="147.469" y2="66.6465" gradientUnits="userSpaceOnUse">
<stop stop-color="#E94E4E"/>
<stop offset="1" stop-color="#D33332"/>
</linearGradient>
<linearGradient id="paint28_linear_9_125" x1="151.304" y1="62.6547" x2="135.445" y2="69.7233" gradientUnits="userSpaceOnUse">
<stop stop-color="white"/>
<stop offset="1" stop-color="#DDF1F3"/>
</linearGradient>
<linearGradient id="paint29_linear_9_125" x1="238.889" y1="80.933" x2="238.889" y2="94.845" gradientUnits="userSpaceOnUse">
<stop stop-color="#E8E8EB"/>
<stop offset="1" stop-color="#D3D3D3"/>
</linearGradient>
<linearGradient id="paint30_linear_9_125" x1="276.956" y1="106.402" x2="295.688" y2="125.654" gradientUnits="userSpaceOnUse">
<stop stop-color="#ECDE74"/>
<stop offset="1" stop-color="#F3CE63"/>
</linearGradient>
<linearGradient id="paint31_linear_9_125" x1="275.829" y1="66.1432" x2="275.675" y2="61.0966" gradientUnits="userSpaceOnUse">
<stop stop-color="#C98348"/>
<stop offset="1" stop-color="#DD9127"/>
</linearGradient>
<linearGradient id="paint32_linear_9_125" x1="257.166" y1="45.5556" x2="256.916" y2="40.3633" gradientUnits="userSpaceOnUse">
<stop stop-color="#C98348"/>
<stop offset="1" stop-color="#DD9127"/>
</linearGradient>
<linearGradient id="paint33_linear_9_125" x1="224.725" y1="69.8444" x2="224.149" y2="83.3238" gradientUnits="userSpaceOnUse">
<stop stop-color="#FFF1E0"/>
<stop offset="1" stop-color="#ECDE74"/>
</linearGradient>
<linearGradient id="paint34_linear_9_125" x1="228.147" y1="91.9819" x2="231.536" y2="114.933" gradientUnits="userSpaceOnUse">
<stop stop-color="#FFF1E0"/>
<stop offset="1" stop-color="#ECDE74"/>
</linearGradient>
<linearGradient id="paint35_linear_9_125" x1="226.454" y1="73.8808" x2="226.286" y2="82.3176" gradientUnits="userSpaceOnUse">
<stop stop-color="#F3CE63"/>
<stop offset="1" stop-color="#D2A651"/>
</linearGradient>
<linearGradient id="paint36_linear_9_125" x1="217.436" y1="36.1247" x2="220.874" y2="46.6339" gradientUnits="userSpaceOnUse">
<stop stop-color="#DBE8C4"/>
<stop offset="1" stop-color="#AAC76F"/>
</linearGradient>
<linearGradient id="paint37_linear_9_125" x1="209.787" y1="34.9134" x2="212.562" y2="44.4072" gradientUnits="userSpaceOnUse">
<stop stop-color="#DBE8C4"/>
<stop offset="1" stop-color="#AAC76F"/>
</linearGradient>
<linearGradient id="paint38_linear_9_125" x1="239.572" y1="24.8231" x2="232.618" y2="32.7497" gradientUnits="userSpaceOnUse">
<stop stop-color="#DBE8C4"/>
<stop offset="1" stop-color="#AAC76F"/>
</linearGradient>
<linearGradient id="paint39_linear_9_125" x1="246.508" y1="24.1622" x2="241.914" y2="34.0221" gradientUnits="userSpaceOnUse">
<stop stop-color="#DBE8C4"/>
<stop offset="1" stop-color="#AAC76F"/>
</linearGradient>
<linearGradient id="paint40_linear_9_125" x1="214.672" y1="44.6723" x2="217.523" y2="53.6405" gradientUnits="userSpaceOnUse">
<stop stop-color="#DBE8C4"/>
<stop offset="1" stop-color="#AAC76F"/>
</linearGradient>
</defs>
</svg>
